<svg width="34" height="34" viewBox="0 0 34 34" fill="none" xmlns="http://www.w3.org/2000/svg">
<path d="M16.8672 20.7187C17.8535 20.7187 18.7993 20.327 19.4968 19.6296C20.1942 18.9322 20.5859 17.9863 20.5859 17C20.5859 16.8911 20.581 16.7832 20.5717 16.6766L16.5438 20.7045C16.6504 20.7138 16.758 20.7187 16.8672 20.7187ZM29.1763 5.49711L27.7578 4.08C27.708 4.03022 27.6405 4.00226 27.5701 4.00226C27.4996 4.00226 27.4321 4.03022 27.3823 4.08L23.7525 7.71076C21.7502 6.68744 19.4993 6.17578 17 6.17578C10.6184 6.17578 5.85704 9.49941 2.71602 16.1467C2.58977 16.414 2.52429 16.706 2.52429 17.0017C2.52429 17.2973 2.58977 17.5893 2.71602 17.8566C3.9711 20.5003 5.4824 22.6192 7.24991 24.2134L3.73735 27.7246C3.68758 27.7744 3.65961 27.842 3.65961 27.9124C3.65961 27.9828 3.68758 28.0503 3.73735 28.1001L5.15479 29.5176C5.2046 29.5674 5.27214 29.5953 5.34256 29.5953C5.41298 29.5953 5.48051 29.5674 5.53032 29.5176L29.1763 5.87297C29.201 5.8483 29.2205 5.819 29.2339 5.78675C29.2473 5.75451 29.2542 5.71994 29.2542 5.68504C29.2542 5.65013 29.2473 5.61556 29.2339 5.58332C29.2205 5.55107 29.201 5.52178 29.1763 5.49711ZM11.0234 17C11.0234 15.9906 11.2847 14.9985 11.782 14.1201C12.2794 13.2418 12.9957 12.5073 13.8613 11.9881C14.7269 11.4689 15.7122 11.1828 16.7212 11.1575C17.7303 11.1323 18.7286 11.3689 19.6191 11.8442L18.0047 13.4586C17.3537 13.2501 16.6578 13.225 15.9934 13.386C15.329 13.547 14.7219 13.8879 14.2385 14.3713C13.7551 14.8547 13.4142 15.4618 13.2532 16.1262C13.0922 16.7906 13.1173 17.4865 13.3258 18.1375L11.7114 19.7519C11.2584 18.9055 11.022 17.96 11.0234 17V17Z" fill="#333333" fill-opacity="0.4"/>
<path d="M31.284 16.1434C30.1153 13.6819 28.7242 11.6748 27.1107 10.122L22.3248 14.9082C22.7282 15.9628 22.8177 17.1116 22.5823 18.2159C22.3469 19.3202 21.7968 20.3327 20.9984 21.1311C20.2 21.9296 19.1874 22.4797 18.0831 22.7151C16.9788 22.9505 15.83 22.861 14.7754 22.4576L10.716 26.517C12.5993 27.3885 14.694 27.8242 17 27.8242C23.3817 27.8242 28.143 24.5006 31.284 17.8533C31.4103 17.586 31.4758 17.294 31.4758 16.9983C31.4758 16.7027 31.4103 16.4107 31.284 16.1434V16.1434Z" fill="#333333" fill-opacity="0.4"/>
</svg>