<svg width="34" height="34" viewBox="0 0 34 34" fill="none" xmlns="http://www.w3.org/2000/svg">
<path d="M13.1484 17C13.1484 17.9863 13.5402 18.9322 14.2376 19.6296C14.935 20.327 15.8809 20.7188 16.8672 20.7188C17.8535 20.7188 18.7993 20.327 19.4968 19.6296C20.1942 18.9322 20.5859 17.9863 20.5859 17C20.5859 16.0137 20.1942 15.0678 19.4968 14.3704C18.7993 13.673 17.8535 13.2812 16.8672 13.2812C15.8809 13.2812 14.935 13.673 14.2376 14.3704C13.5402 15.0678 13.1484 16.0137 13.1484 17V17ZM31.284 16.1434C28.1363 9.5127 23.3783 6.17578 17 6.17578C10.6184 6.17578 5.86368 9.51269 2.71602 16.1467C2.58977 16.414 2.52429 16.706 2.52429 17.0017C2.52429 17.2973 2.58977 17.5893 2.71602 17.8566C5.86368 24.4873 10.6217 27.8242 17 27.8242C23.3816 27.8242 28.1363 24.4873 31.284 17.8533C31.5397 17.3154 31.5397 16.6912 31.284 16.1434V16.1434ZM16.8672 22.8438C13.6399 22.8438 11.0234 20.2273 11.0234 17C11.0234 13.7727 13.6399 11.1562 16.8672 11.1562C20.0945 11.1562 22.7109 13.7727 22.7109 17C22.7109 20.2273 20.0945 22.8438 16.8672 22.8438Z" fill="#333333"/>
</svg>